<svg id="svg" version="1.1" xmlns="http://www.w3.org/2000/svg" xmlns:xlink="http://www.w3.org/1999/xlink" width="400" height="400" viewBox="0, 0, 400,400"><g id="svgg"><path id="path0" d="M159.200 98.403 C 152.270 102.775,145.191 107.219,143.470 108.277 C 141.748 109.334,139.647 110.650,138.800 111.200 C 137.953 111.750,135.803 113.100,134.021 114.200 C 132.239 115.300,130.065 116.650,129.190 117.200 C 128.315 117.750,121.122 122.250,113.206 127.200 C 105.290 132.150,98.810 136.301,98.807 136.425 C 98.803 136.548,102.715 138.562,107.500 140.899 C 132.309 153.016,141.820 157.738,142.008 158.029 C 142.194 158.316,152.980 163.672,179.600 176.695 C 187.673 180.645,206.066 189.676,220.626 196.839 C 224.160 198.577,227.288 200.000,227.578 200.000 C 228.019 200.000,232.272 197.467,240.100 192.543 C 240.925 192.025,242.365 191.119,243.300 190.531 C 247.111 188.133,247.997 187.587,252.600 184.793 C 255.240 183.190,257.850 181.477,258.400 180.986 C 258.950 180.496,262.100 178.423,265.400 176.381 C 268.700 174.338,272.660 171.877,274.200 170.910 C 275.740 169.943,282.400 165.816,289.000 161.738 C 295.600 157.660,301.226 154.108,301.503 153.844 C 301.898 153.468,300.660 152.713,295.703 150.309 C 292.236 148.627,284.540 144.881,278.600 141.983 C 272.660 139.085,264.740 135.224,261.000 133.403 C 257.260 131.582,249.880 127.980,244.600 125.399 C 239.320 122.818,231.760 119.129,227.800 117.201 C 220.788 113.787,213.295 110.127,193.200 100.301 C 177.020 92.389,172.806 90.399,172.291 90.426 C 172.021 90.440,166.130 94.030,159.200 98.403 " stroke="none" fill="#cad1e9" fill-rule="evenodd"></path><path id="path1" d="M196.400 0.601 C 195.630 0.906,194.698 1.165,194.329 1.177 C 193.959 1.190,193.419 1.431,193.129 1.714 C 192.838 1.997,191.610 2.528,190.400 2.894 C 186.488 4.077,181.805 5.721,181.600 5.983 C 181.490 6.123,180.230 6.580,178.800 6.997 C 177.370 7.414,175.840 7.972,175.400 8.238 C 174.960 8.504,173.970 8.852,173.200 9.011 C 172.430 9.170,171.710 9.422,171.600 9.570 C 171.356 9.898,167.327 11.200,166.554 11.200 C 166.249 11.200,166.000 11.340,166.000 11.511 C 166.000 11.823,161.806 13.200,160.857 13.200 C 160.580 13.200,160.444 13.348,160.556 13.528 C 160.667 13.709,159.508 14.181,157.979 14.577 C 156.451 14.974,155.200 15.413,155.200 15.554 C 155.200 15.695,153.985 16.154,152.500 16.574 C 151.015 16.994,149.710 17.451,149.600 17.589 C 149.347 17.906,145.295 19.200,144.554 19.200 C 144.249 19.200,144.000 19.356,144.000 19.547 C 144.000 19.738,142.875 20.208,141.500 20.590 C 140.125 20.973,138.820 21.417,138.600 21.577 C 138.380 21.738,137.120 22.193,135.800 22.589 C 134.480 22.986,133.220 23.441,133.000 23.602 C 132.445 24.007,128.267 25.384,127.900 25.283 C 127.735 25.237,127.600 25.342,127.600 25.516 C 127.600 25.691,126.340 26.178,124.800 26.600 C 123.260 27.022,122.000 27.487,122.000 27.634 C 122.000 27.780,121.460 28.008,120.800 28.140 C 120.140 28.272,118.810 28.740,117.845 29.180 C 116.880 29.619,115.260 30.201,114.245 30.472 C 113.230 30.744,112.400 31.109,112.400 31.283 C 112.400 31.457,112.184 31.600,111.920 31.600 C 110.988 31.600,106.800 32.981,106.800 33.289 C 106.800 33.460,106.551 33.600,106.246 33.600 C 105.478 33.600,101.445 34.901,101.200 35.227 C 101.090 35.374,99.920 35.805,98.600 36.185 C 97.280 36.565,96.020 37.017,95.800 37.190 C 95.580 37.362,94.320 37.813,93.000 38.191 C 91.680 38.570,90.510 39.008,90.400 39.164 C 90.290 39.321,88.985 39.773,87.500 40.169 C 86.015 40.565,84.800 41.014,84.800 41.167 C 84.800 41.320,83.540 41.773,82.000 42.172 C 80.460 42.571,79.200 43.040,79.200 43.214 C 79.200 43.388,78.476 43.652,77.592 43.801 C 76.708 43.951,75.739 44.318,75.440 44.617 C 75.140 44.917,74.788 45.055,74.657 44.924 C 74.526 44.793,74.190 44.868,73.910 45.091 C 73.629 45.314,72.464 45.732,71.320 46.019 C 70.170 46.308,69.348 46.716,69.482 46.932 C 69.619 47.155,69.517 47.196,69.244 47.027 C 68.981 46.864,68.545 46.913,68.277 47.136 C 68.009 47.359,66.937 47.755,65.895 48.018 C 64.853 48.280,64.000 48.661,64.000 48.865 C 64.000 49.069,63.775 49.198,63.500 49.153 C 63.225 49.108,62.493 49.281,61.874 49.536 C 61.255 49.791,60.530 50.000,60.263 50.000 C 59.996 50.000,59.414 50.255,58.969 50.567 C 58.524 50.878,57.106 51.409,55.817 51.745 C 54.528 52.082,53.367 52.519,53.237 52.718 C 53.107 52.916,51.696 53.395,50.103 53.782 C 48.509 54.168,47.286 54.615,47.384 54.774 C 47.482 54.933,46.209 55.382,44.555 55.772 C 42.901 56.162,41.656 56.590,41.789 56.723 C 41.922 56.856,40.989 57.278,39.716 57.661 C 35.822 58.833,31.011 60.548,30.800 60.841 C 30.690 60.993,29.790 61.321,28.800 61.571 C 27.810 61.821,26.190 62.374,25.200 62.800 C 24.210 63.226,22.635 63.768,21.700 64.003 C 20.765 64.238,20.000 64.604,20.000 64.815 C 20.000 65.027,19.865 65.176,19.700 65.146 C 19.130 65.045,16.783 65.704,16.587 66.021 C 16.292 66.498,17.293 77.990,17.612 77.792 C 17.764 77.698,17.992 79.102,18.119 80.911 C 18.644 88.390,19.345 95.413,19.584 95.600 C 19.725 95.710,20.159 99.580,20.548 104.200 C 20.937 108.820,21.414 113.050,21.608 113.600 C 21.802 114.150,22.157 116.940,22.397 119.800 C 23.349 131.145,23.327 130.934,23.623 131.200 C 23.746 131.310,24.231 135.360,24.702 140.200 C 25.172 145.040,26.026 153.140,26.600 158.200 C 27.173 163.260,27.969 170.280,28.367 173.800 C 28.766 177.320,29.132 180.200,29.181 180.200 C 29.229 180.200,29.337 181.010,29.420 182.000 C 29.504 182.990,29.943 187.130,30.397 191.200 C 31.547 201.510,32.736 213.080,32.851 215.078 C 32.904 216.001,33.060 216.687,33.197 216.602 C 33.428 216.459,34.036 222.398,34.661 230.900 C 34.802 232.825,35.039 234.400,35.188 234.400 C 35.336 234.400,35.781 238.315,36.177 243.100 C 36.573 247.885,37.031 251.980,37.196 252.200 C 37.362 252.420,37.621 254.359,37.773 256.510 C 37.925 258.660,38.110 260.734,38.184 261.118 C 38.258 261.501,38.449 263.612,38.608 265.808 C 38.768 268.003,39.027 269.890,39.185 270.000 C 39.343 270.110,39.798 274.160,40.196 279.000 C 40.595 283.840,41.045 287.890,41.196 288.000 C 41.348 288.110,41.794 292.160,42.187 297.000 C 42.580 301.840,43.059 305.971,43.251 306.180 C 43.443 306.389,43.600 307.129,43.600 307.824 C 43.600 311.071,44.083 312.806,45.055 313.050 C 45.575 313.180,46.000 313.449,46.000 313.647 C 46.000 313.845,46.720 314.295,47.600 314.647 C 48.480 314.999,49.200 315.429,49.200 315.603 C 49.200 315.777,50.100 316.243,51.200 316.639 C 52.300 317.034,53.200 317.509,53.200 317.693 C 53.200 317.878,53.965 318.393,54.900 318.839 C 57.642 320.145,59.358 321.109,60.000 321.704 C 60.330 322.009,61.230 322.505,62.000 322.806 C 62.770 323.107,63.526 323.557,63.680 323.806 C 63.835 324.055,64.690 324.500,65.580 324.794 C 66.471 325.088,67.200 325.452,67.200 325.603 C 67.200 325.755,67.965 326.218,68.900 326.634 C 69.835 327.050,70.949 327.707,71.375 328.095 C 71.802 328.483,72.374 328.800,72.647 328.800 C 72.920 328.800,73.381 329.025,73.671 329.300 C 73.962 329.575,74.830 330.116,75.600 330.502 C 76.370 330.888,77.900 331.745,79.000 332.405 C 80.100 333.066,81.540 333.891,82.200 334.238 C 82.860 334.586,84.300 335.393,85.400 336.033 C 86.500 336.673,88.210 337.586,89.200 338.061 C 90.190 338.536,91.180 339.139,91.400 339.400 C 91.620 339.662,92.430 340.121,93.200 340.420 C 93.970 340.718,94.780 341.168,95.000 341.420 C 95.220 341.671,96.030 342.119,96.800 342.416 C 97.570 342.712,98.290 343.081,98.400 343.236 C 98.587 343.500,101.038 344.900,103.800 346.320 C 104.460 346.660,105.090 347.051,105.200 347.190 C 105.310 347.328,106.120 347.774,107.000 348.180 C 107.880 348.586,108.690 349.027,108.800 349.159 C 109.142 349.571,114.059 352.350,116.668 353.606 C 117.586 354.048,118.396 354.562,118.468 354.748 C 118.541 354.935,119.410 355.468,120.400 355.934 C 121.390 356.399,122.560 357.006,123.000 357.282 C 125.898 359.101,127.537 359.977,128.471 360.208 C 129.060 360.353,129.633 360.708,129.743 360.996 C 129.854 361.284,130.587 361.732,131.372 361.991 C 132.157 362.250,132.800 362.613,132.800 362.798 C 132.800 362.983,133.610 363.443,134.600 363.821 C 135.590 364.199,136.400 364.637,136.400 364.794 C 136.400 364.950,137.165 365.418,138.100 365.832 C 139.035 366.247,140.027 366.803,140.304 367.069 C 140.582 367.334,141.437 367.778,142.204 368.056 C 142.972 368.334,143.600 368.677,143.600 368.820 C 143.600 368.962,144.320 369.403,145.200 369.800 C 146.080 370.197,146.800 370.655,146.800 370.817 C 146.800 370.980,147.237 371.223,147.772 371.357 C 148.307 371.491,148.988 371.846,149.287 372.144 C 149.586 372.443,150.634 373.073,151.615 373.545 C 152.597 374.016,154.120 374.846,155.000 375.389 C 155.880 375.931,157.365 376.749,158.300 377.206 C 159.235 377.663,160.000 378.209,160.000 378.419 C 160.000 378.628,160.135 378.772,160.300 378.738 C 160.815 378.632,163.600 379.993,163.600 380.351 C 163.600 380.538,164.410 381.001,165.400 381.379 C 166.390 381.757,167.200 382.207,167.200 382.379 C 167.200 382.551,168.055 383.016,169.100 383.414 C 170.145 383.811,171.180 384.348,171.400 384.606 C 171.620 384.865,172.430 385.323,173.200 385.623 C 173.970 385.924,174.949 386.492,175.375 386.885 C 175.802 387.278,176.374 387.600,176.647 387.600 C 176.920 387.600,177.381 387.837,177.671 388.128 C 177.962 388.418,178.965 388.992,179.900 389.405 C 180.835 389.817,181.600 390.299,181.600 390.477 C 181.600 390.655,181.750 390.800,181.933 390.800 C 182.116 390.800,184.906 392.316,188.133 394.168 C 191.360 396.021,194.006 397.416,194.013 397.268 C 194.020 397.121,194.245 397.287,194.513 397.638 C 196.552 400.307,202.034 400.349,204.729 397.716 C 205.019 397.432,205.480 397.200,205.753 397.200 C 206.026 397.200,206.598 396.883,207.025 396.495 C 207.451 396.107,208.565 395.450,209.500 395.034 C 210.435 394.618,211.200 394.155,211.200 394.003 C 211.200 393.852,211.939 393.484,212.843 393.186 C 213.746 392.888,214.565 392.435,214.663 392.179 C 214.761 391.923,215.552 391.480,216.421 391.193 C 217.289 390.906,218.000 390.512,218.000 390.316 C 218.000 390.120,218.675 389.678,219.500 389.335 C 220.325 388.991,221.090 388.579,221.200 388.419 C 221.310 388.260,222.165 387.795,223.100 387.387 C 224.035 386.980,224.800 386.541,224.800 386.413 C 224.800 386.284,225.608 385.824,226.596 385.390 C 227.584 384.955,228.394 384.492,228.396 384.361 C 228.398 384.229,229.165 383.782,230.100 383.368 C 231.035 382.953,232.038 382.386,232.329 382.107 C 232.619 381.828,233.002 381.600,233.180 381.600 C 233.495 381.600,237.805 379.142,238.600 378.508 C 238.820 378.333,239.765 377.850,240.700 377.434 C 241.635 377.019,242.400 376.555,242.400 376.403 C 242.400 376.252,243.139 375.884,244.043 375.586 C 244.946 375.288,245.767 374.829,245.868 374.566 C 245.969 374.304,246.850 373.784,247.826 373.411 C 248.802 373.039,249.600 372.583,249.600 372.398 C 249.600 372.213,250.230 371.854,251.000 371.600 C 251.770 371.346,252.400 370.987,252.400 370.802 C 252.400 370.617,253.210 370.157,254.200 369.779 C 255.190 369.401,256.000 368.976,256.000 368.835 C 256.000 368.694,256.808 368.224,257.796 367.790 C 258.784 367.355,259.594 366.892,259.596 366.761 C 259.598 366.629,260.365 366.182,261.300 365.766 C 262.235 365.350,263.349 364.693,263.775 364.305 C 264.202 363.917,264.774 363.600,265.047 363.600 C 265.320 363.600,265.781 363.367,266.071 363.083 C 266.362 362.799,267.200 362.321,267.934 362.020 C 268.668 361.720,269.481 361.278,269.740 361.037 C 270.000 360.797,270.929 360.242,271.806 359.804 C 272.683 359.366,273.490 358.916,273.600 358.804 C 273.710 358.692,274.520 358.242,275.400 357.804 C 276.280 357.366,277.090 356.898,277.200 356.763 C 277.310 356.628,278.120 356.186,279.000 355.780 C 279.880 355.374,280.690 354.918,280.800 354.766 C 280.910 354.614,281.675 354.209,282.500 353.865 C 283.325 353.522,284.000 353.080,284.000 352.884 C 284.000 352.688,284.711 352.294,285.579 352.007 C 286.448 351.720,287.239 351.277,287.337 351.021 C 287.435 350.765,288.254 350.312,289.157 350.014 C 290.061 349.716,290.800 349.348,290.800 349.197 C 290.800 349.045,291.565 348.582,292.500 348.166 C 293.435 347.750,294.549 347.093,294.975 346.705 C 295.402 346.317,295.974 346.000,296.247 346.000 C 296.520 346.000,296.981 345.768,297.271 345.485 C 297.562 345.201,298.520 344.635,299.400 344.226 C 300.280 343.817,301.090 343.373,301.200 343.241 C 301.310 343.108,302.120 342.642,303.000 342.204 C 303.880 341.766,304.690 341.298,304.800 341.163 C 304.910 341.028,305.720 340.583,306.600 340.172 C 307.480 339.762,308.380 339.276,308.600 339.092 C 309.068 338.701,311.096 337.587,313.500 336.401 C 314.435 335.940,315.200 335.420,315.200 335.245 C 315.200 335.071,315.939 334.684,316.843 334.386 C 317.746 334.088,318.565 333.635,318.663 333.379 C 318.761 333.123,319.550 332.681,320.415 332.395 C 321.280 332.109,322.289 331.544,322.656 331.138 C 323.023 330.732,323.553 330.400,323.833 330.400 C 324.114 330.400,324.581 330.168,324.871 329.885 C 325.162 329.601,326.120 329.035,327.000 328.626 C 327.880 328.217,328.690 327.764,328.800 327.620 C 328.910 327.476,329.720 327.026,330.600 326.620 C 331.480 326.214,332.290 325.773,332.400 325.641 C 332.510 325.508,333.320 325.042,334.200 324.604 C 335.080 324.166,335.890 323.698,336.000 323.563 C 336.110 323.428,336.920 322.983,337.800 322.574 C 338.680 322.165,339.638 321.599,339.929 321.315 C 340.219 321.032,340.680 320.800,340.953 320.800 C 341.226 320.800,341.798 320.478,342.225 320.085 C 342.651 319.692,343.630 319.124,344.400 318.823 C 345.170 318.523,345.980 318.076,346.200 317.831 C 346.420 317.585,347.365 317.046,348.300 316.632 C 349.235 316.217,350.000 315.753,350.000 315.600 C 350.000 315.447,350.675 315.014,351.500 314.639 C 354.993 313.050,355.582 312.615,355.615 311.600 C 355.632 311.050,355.912 308.350,356.237 305.600 C 356.562 302.850,357.210 296.820,357.677 292.200 C 358.145 287.580,358.648 283.710,358.795 283.600 C 358.943 283.490,359.389 279.530,359.787 274.800 C 360.184 270.070,360.642 266.020,360.804 265.800 C 360.966 265.580,361.421 261.620,361.816 257.000 C 362.211 252.380,362.656 248.510,362.803 248.400 C 363.045 248.221,363.718 241.576,364.293 233.700 C 364.410 232.105,364.631 230.800,364.785 230.800 C 364.938 230.800,365.403 226.840,365.818 222.000 C 366.233 217.160,366.686 213.200,366.826 213.200 C 366.965 213.200,367.409 209.285,367.813 204.500 C 368.216 199.715,368.667 195.710,368.815 195.600 C 368.963 195.490,369.377 192.430,369.736 188.800 C 370.095 185.170,370.467 181.750,370.563 181.200 C 370.658 180.650,371.024 177.140,371.376 173.400 C 371.728 169.660,372.182 165.970,372.384 165.200 C 372.586 164.430,373.064 160.200,373.446 155.800 C 373.829 151.400,374.263 147.710,374.412 147.600 C 374.560 147.490,374.987 143.710,375.360 139.200 C 375.733 134.690,376.195 130.640,376.386 130.200 C 376.577 129.760,377.032 125.800,377.397 121.400 C 377.762 117.000,378.218 113.040,378.410 112.600 C 378.601 112.160,379.069 108.110,379.448 103.600 C 379.828 99.090,380.258 95.310,380.404 95.200 C 380.551 95.090,380.999 91.130,381.400 86.400 C 381.801 81.670,382.253 77.710,382.404 77.600 C 382.762 77.339,383.725 66.526,383.433 66.053 C 383.310 65.854,382.577 65.572,381.804 65.427 C 381.032 65.282,380.400 65.011,380.400 64.825 C 380.400 64.639,379.140 64.177,377.600 63.800 C 376.060 63.423,374.800 62.973,374.800 62.800 C 374.800 62.627,373.540 62.177,372.000 61.800 C 370.460 61.423,369.200 60.975,369.200 60.806 C 369.200 60.637,367.940 60.171,366.400 59.772 C 364.860 59.373,363.600 58.915,363.600 58.756 C 363.600 58.596,362.340 58.141,360.800 57.744 C 359.260 57.347,358.000 56.897,358.000 56.744 C 358.000 56.591,356.740 56.141,355.200 55.744 C 353.660 55.347,352.400 54.897,352.400 54.744 C 352.400 54.591,351.140 54.141,349.600 53.744 C 348.060 53.347,346.800 52.903,346.800 52.756 C 346.800 52.609,345.630 52.172,344.200 51.785 C 342.770 51.398,341.600 50.948,341.600 50.785 C 341.600 50.622,341.015 50.378,340.300 50.242 C 339.585 50.107,338.514 49.742,337.920 49.432 C 337.327 49.122,335.797 48.566,334.520 48.197 C 333.244 47.827,332.020 47.381,331.800 47.205 C 331.580 47.030,330.275 46.573,328.900 46.190 C 327.525 45.808,326.400 45.369,326.400 45.216 C 326.400 45.063,325.494 44.728,324.387 44.473 C 323.280 44.217,321.604 43.658,320.664 43.229 C 319.724 42.801,318.110 42.238,317.077 41.978 C 316.045 41.718,315.200 41.366,315.200 41.196 C 315.200 41.025,313.940 40.577,312.400 40.200 C 310.860 39.823,309.600 39.375,309.600 39.206 C 309.600 39.036,308.415 38.600,306.966 38.236 C 305.517 37.872,303.942 37.330,303.466 37.032 C 302.990 36.734,301.655 36.272,300.500 36.005 C 299.345 35.738,298.400 35.380,298.400 35.209 C 298.400 35.038,297.140 34.571,295.600 34.172 C 294.060 33.773,292.800 33.323,292.800 33.172 C 292.800 33.021,291.540 32.571,290.000 32.172 C 288.460 31.773,287.200 31.324,287.200 31.175 C 287.200 31.026,286.345 30.672,285.300 30.389 C 284.255 30.106,282.762 29.558,281.981 29.171 C 281.201 28.783,279.896 28.342,279.081 28.189 C 278.267 28.036,277.600 27.794,277.600 27.650 C 277.600 27.507,276.385 27.046,274.900 26.626 C 273.415 26.206,272.110 25.749,272.000 25.612 C 271.890 25.474,270.630 25.019,269.200 24.600 C 267.770 24.181,266.510 23.719,266.400 23.572 C 266.290 23.426,265.120 22.995,263.800 22.615 C 262.480 22.235,261.220 21.786,261.000 21.617 C 260.780 21.448,259.520 20.986,258.200 20.589 C 256.880 20.193,255.620 19.735,255.400 19.571 C 255.180 19.408,253.937 18.997,252.637 18.658 C 251.337 18.320,250.167 17.887,250.037 17.697 C 249.907 17.507,248.585 17.027,247.100 16.631 C 245.615 16.235,244.400 15.786,244.400 15.633 C 244.400 15.480,243.140 15.027,241.600 14.628 C 240.060 14.229,238.800 13.762,238.800 13.591 C 238.800 13.420,237.855 13.054,236.700 12.778 C 235.545 12.503,233.970 11.960,233.200 11.572 C 232.430 11.184,230.771 10.644,229.514 10.373 C 228.256 10.101,227.314 9.740,227.419 9.569 C 227.524 9.399,226.618 9.038,225.405 8.766 C 224.192 8.495,223.200 8.145,223.200 7.989 C 223.200 7.833,222.075 7.392,220.700 7.010 C 219.325 6.627,218.020 6.174,217.800 6.002 C 217.580 5.830,216.320 5.359,215.000 4.956 C 213.680 4.552,212.510 4.118,212.400 3.992 C 212.290 3.865,211.030 3.419,209.600 3.000 C 208.170 2.581,206.910 2.131,206.800 1.999 C 205.717 0.706,198.566 -0.256,196.400 0.601 M188.224 97.424 C 202.707 104.552,214.535 110.343,227.800 116.802 C 231.760 118.730,239.320 122.417,244.600 124.996 C 249.880 127.575,257.080 131.086,260.600 132.800 C 264.120 134.513,272.040 138.375,278.200 141.381 C 284.360 144.387,292.419 148.310,296.110 150.099 C 301.327 152.628,302.706 153.455,302.310 153.814 C 302.029 154.068,299.370 155.769,296.400 157.595 C 293.430 159.421,289.920 161.586,288.600 162.408 C 274.321 171.290,261.553 179.199,260.500 179.813 C 258.577 180.936,258.598 180.953,266.500 184.777 C 270.515 186.720,279.380 191.031,286.200 194.358 C 293.020 197.685,299.448 200.810,300.484 201.303 C 302.822 202.416,302.823 202.451,300.500 203.909 C 298.063 205.438,284.097 214.062,273.800 220.394 C 261.332 228.062,258.800 229.658,258.800 229.850 C 258.800 229.949,261.185 231.171,264.100 232.567 C 267.015 233.963,274.800 237.747,281.400 240.976 C 288.000 244.205,295.335 247.771,297.700 248.901 C 302.723 251.301,302.667 251.187,299.700 253.012 C 298.435 253.789,293.980 256.542,289.800 259.128 C 285.620 261.714,278.150 266.324,273.200 269.373 C 268.250 272.422,259.970 277.528,254.800 280.720 C 244.064 287.349,230.343 295.792,228.666 296.802 C 227.536 297.482,227.506 297.472,221.866 294.697 C 213.213 290.438,199.945 284.000,199.823 284.000 C 199.764 284.000,193.254 280.830,185.358 276.955 C 177.461 273.080,168.120 268.510,164.600 266.799 C 161.080 265.088,152.980 261.128,146.600 257.998 C 140.220 254.869,131.760 250.729,127.800 248.799 C 104.498 237.440,98.400 234.423,98.400 234.249 C 98.400 234.143,105.825 229.414,114.900 223.740 C 123.975 218.067,131.940 213.081,132.600 212.660 C 133.260 212.239,135.582 210.758,137.760 209.367 L 141.721 206.839 130.560 201.372 C 124.422 198.366,114.810 193.659,109.200 190.914 C 97.013 184.950,97.554 185.318,99.397 184.238 C 100.183 183.777,105.275 180.633,110.713 177.252 C 120.885 170.926,121.452 170.570,126.200 167.519 C 127.740 166.529,129.540 165.416,130.200 165.045 C 130.860 164.673,132.930 163.388,134.800 162.188 C 136.670 160.988,138.881 159.638,139.714 159.188 C 141.935 157.987,144.699 159.598,117.600 146.298 C 110.230 142.681,102.805 139.041,101.100 138.210 C 97.463 136.436,97.497 136.527,99.915 135.044 C 100.952 134.407,102.475 133.462,103.300 132.944 C 104.125 132.425,105.475 131.581,106.300 131.069 C 107.779 130.152,109.761 128.908,112.700 127.054 C 113.525 126.533,115.606 125.228,117.323 124.154 C 119.041 123.079,121.544 121.502,122.885 120.649 C 124.225 119.796,126.819 118.176,128.649 117.049 C 132.877 114.444,152.165 102.386,155.600 100.200 C 157.030 99.290,160.450 97.136,163.200 95.414 C 165.950 93.692,169.010 91.764,170.000 91.129 C 172.437 89.566,171.831 89.357,188.224 97.424 " stroke="none" fill="#242c88" fill-rule="evenodd"></path><path id="path2" d="M128.400 200.179 C 128.400 200.289,128.940 200.659,129.600 201.000 C 130.260 201.341,130.800 201.531,130.800 201.421 C 130.800 201.311,130.260 200.941,129.600 200.600 C 128.940 200.259,128.400 200.069,128.400 200.179 M141.388 206.800 C 141.459 206.910,139.691 208.153,137.458 209.562 C 135.226 210.972,132.500 212.702,131.400 213.408 C 130.300 214.113,122.425 219.048,113.900 224.373 C 105.375 229.698,98.400 234.142,98.400 234.248 C 98.400 234.422,104.490 237.437,127.800 248.799 C 131.760 250.729,140.220 254.869,146.600 257.998 C 152.980 261.128,161.080 265.088,164.600 266.799 C 168.120 268.510,177.461 273.080,185.358 276.955 C 193.254 280.830,199.764 284.000,199.823 284.000 C 199.945 284.000,213.213 290.438,221.866 294.697 C 227.506 297.472,227.536 297.482,228.666 296.802 C 230.343 295.792,244.064 287.349,254.800 280.720 C 259.970 277.528,268.250 272.422,273.200 269.373 C 278.150 266.324,285.620 261.714,289.800 259.128 C 293.980 256.542,298.435 253.789,299.700 253.012 C 302.667 251.187,302.723 251.301,297.700 248.901 C 295.335 247.771,288.000 244.205,281.400 240.976 C 274.800 237.747,267.004 233.958,264.075 232.555 C 260.347 230.770,258.836 229.854,259.036 229.503 C 259.194 229.226,258.980 229.322,258.561 229.715 C 258.143 230.108,256.990 230.937,256.000 231.558 C 251.139 234.604,240.200 241.331,237.000 243.242 C 235.020 244.425,232.230 246.159,230.800 247.096 C 227.528 249.238,228.073 249.300,221.427 246.039 C 218.332 244.520,208.960 239.917,200.600 235.809 C 192.240 231.702,180.200 225.790,173.844 222.671 C 167.489 219.552,157.557 214.660,151.774 211.800 C 145.991 208.940,141.318 206.690,141.388 206.800 " stroke="none" fill="#5b6bc3" fill-rule="evenodd"></path><path id="path3" d="M152.000 211.796 C 152.000 212.070,154.449 213.284,154.632 213.101 C 154.719 213.014,154.162 212.644,153.395 212.278 C 152.628 211.912,152.000 211.695,152.000 211.796 M156.000 213.796 C 156.000 214.070,158.449 215.284,158.632 215.101 C 158.719 215.014,158.162 214.644,157.395 214.278 C 156.628 213.912,156.000 213.695,156.000 213.796 M172.400 221.779 C 172.400 221.889,172.940 222.259,173.600 222.600 C 174.260 222.941,174.800 223.131,174.800 223.021 C 174.800 222.911,174.260 222.541,173.600 222.200 C 172.940 221.859,172.400 221.669,172.400 221.779 M176.400 223.796 C 176.400 224.070,178.849 225.284,179.032 225.101 C 179.119 225.014,178.562 224.644,177.795 224.278 C 177.028 223.912,176.400 223.695,176.400 223.796 M196.000 233.396 C 196.000 233.670,198.449 234.884,198.632 234.701 C 198.719 234.614,198.162 234.244,197.395 233.878 C 196.628 233.512,196.000 233.295,196.000 233.396 M200.000 235.396 C 200.000 235.670,202.449 236.884,202.632 236.701 C 202.719 236.614,202.162 236.244,201.395 235.878 C 200.628 235.512,200.000 235.295,200.000 235.396 M244.900 238.046 C 243.537 238.919,243.095 239.506,244.300 238.843 C 245.218 238.339,246.656 237.227,246.400 237.219 C 246.290 237.216,245.615 237.588,244.900 238.046 M220.400 245.396 C 220.400 245.670,222.849 246.884,223.032 246.701 C 223.119 246.614,222.562 246.244,221.795 245.878 C 221.028 245.512,220.400 245.295,220.400 245.396 " stroke="none" fill="#717abc" fill-rule="evenodd"></path><path id="path4" d="M141.606 157.862 C 141.599 158.437,142.148 158.083,118.460 172.800 C 107.660 179.510,98.820 185.090,98.814 185.200 C 98.809 185.310,101.909 186.911,105.702 188.758 C 109.496 190.605,124.210 197.875,138.400 204.913 C 152.590 211.952,167.980 219.555,172.600 221.810 C 177.220 224.064,186.760 228.741,193.800 232.201 C 200.840 235.662,211.340 240.813,217.133 243.648 L 227.667 248.802 238.733 241.949 C 249.394 235.346,256.400 230.954,260.980 228.000 C 262.174 227.230,265.547 225.132,268.476 223.337 C 271.404 221.543,274.970 219.344,276.400 218.451 C 277.830 217.559,280.350 216.001,282.000 214.989 C 283.650 213.978,286.620 212.144,288.600 210.915 C 290.580 209.685,294.000 207.580,296.200 206.237 C 303.030 202.066,303.164 202.979,295.148 199.069 C 291.326 197.205,283.340 193.304,277.400 190.401 C 271.460 187.497,264.890 184.298,262.800 183.293 C 260.710 182.288,258.936 181.305,258.859 181.108 C 258.781 180.912,258.421 181.004,258.059 181.313 C 257.696 181.621,255.240 183.186,252.600 184.790 C 249.960 186.394,247.125 188.133,246.300 188.653 C 245.475 189.174,244.080 190.050,243.200 190.600 C 242.320 191.150,240.925 192.025,240.100 192.543 C 232.272 197.467,228.019 200.000,227.578 200.000 C 227.288 200.000,224.160 198.577,220.626 196.839 C 206.066 189.676,187.673 180.645,179.600 176.695 C 151.164 162.783,142.184 158.299,141.915 157.875 C 141.693 157.527,141.611 157.524,141.606 157.862 " stroke="none" fill="#949ccf" fill-rule="evenodd"></path></g></svg>